<?xml version="1.0" encoding="UTF-8" standalone="no"?>
<svg width="178px" height="135px" viewBox="0 0 178 135" version="1.1" xmlns="http://www.w3.org/2000/svg" xmlns:xlink="http://www.w3.org/1999/xlink">
    <!-- Generator: Sketch 44 (41411) - http://www.bohemiancoding.com/sketch -->
    <title>hex</title>
    <desc>Created with Sketch.</desc>
    <defs></defs>
    <g id="Page-1" stroke="none" stroke-width="1" fill="none" fill-rule="evenodd">
        <g id="hex" transform="translate(0.000000, 1.000000)">
            <polygon id="Polygon-2" stroke="#CC9F54" points="84 27 101.320508 37 101.320508 57 84 67 66.6794919 57 66.6794919 37"></polygon>
            <polygon id="Polygon-2-Copy" stroke="#CC9F54" points="103 60 120.320508 70 120.320508 90 103 100 85.6794919 90 85.6794919 70"></polygon>
            <polygon id="Polygon-2-Copy-10" stroke="#CC9F54" points="65 60 82.3205081 70 82.3205081 90 65 100 47.6794919 90 47.6794919 70"></polygon>
            <polygon id="Polygon-2-Copy-16" stroke="#CC9F54" points="27 60 44.3205081 70 44.3205081 90 27 100 9.67949192 90 9.67949192 70"></polygon>
            <polygon id="Polygon-2-Copy-11" stroke="#CC9F54" points="84 79 101.320508 89 101.320508 109 84 119 66.6794919 109 66.6794919 89"></polygon>
            <polygon id="Polygon-2-Copy-9" stroke="#CC9F54" points="122 93 139.320508 103 139.320508 123 122 133 104.679492 123 104.679492 103"></polygon>
            <polygon id="Polygon-2-Copy-19" stroke="#CC9F54" points="160 93 177.320508 103 177.320508 123 160 133 142.679492 123 142.679492 103"></polygon>
            <polygon id="Polygon-2-Copy-2" stroke="#CC9F54" points="141 60 158.320508 70 158.320508 90 141 100 123.679492 90 123.679492 70"></polygon>
            <polygon id="Polygon-2-Copy-3" stroke="#CC9F54" points="122 27 139.320508 37 139.320508 57 122 67 104.679492 57 104.679492 37"></polygon>
            <polygon id="Polygon-2-Copy-4" stroke="#53899C" points="103 27 111.660254 32 111.660254 42 103 47 94.339746 42 94.339746 32"></polygon>
            <polygon id="Polygon-2-Copy-6" stroke="#53899C" points="122 17 130.660254 22 130.660254 32 122 37 113.339746 32 113.339746 22"></polygon>
            <polygon id="Polygon-2-Copy-12" stroke="#53899C" points="112 0 120.660254 5 120.660254 15 112 20 103.339746 15 103.339746 5"></polygon>
            <polygon id="Polygon-2-Copy-7" stroke="#53899C" points="122 57 130.660254 62 130.660254 72 122 77 113.339746 72 113.339746 62"></polygon>
            <polygon id="Polygon-2-Copy-5" stroke="#53899C" points="103 50 111.660254 55 111.660254 65 103 70 94.339746 65 94.339746 55"></polygon>
            <polygon id="Polygon-2-Copy-17" stroke="#53899C" points="65 50 73.660254 55 73.660254 65 65 70 56.339746 65 56.339746 55"></polygon>
            <polygon id="Polygon-2-Copy-18" stroke="#53899C" points="10 60 18.660254 65 18.660254 75 10 80 1.33974596 75 1.33974596 65"></polygon>
            <polygon id="Polygon-2-Copy-8" stroke="#53899C" points="103 90 111.660254 95 111.660254 105 103 110 94.339746 105 94.339746 95"></polygon>
            <polygon id="Polygon-2-Copy-21" stroke="#53899C" points="141 90 149.660254 95 149.660254 105 141 110 132.339746 105 132.339746 95"></polygon>
            <polygon id="Polygon-2-Copy-13" stroke="#53899C" points="84 109 92.660254 114 92.660254 124 84 129 75.339746 124 75.339746 114"></polygon>
            <polygon id="Polygon-2-Copy-14" stroke="#53899C" points="60 109 68.660254 114 68.660254 124 60 129 51.339746 124 51.339746 114"></polygon>
        </g>
    </g>
</svg>